HIERARCHY
ROOT Bip001_Pelvis
{
  OFFSET 34.4345 95.6767 -26.8758
  CHANNELS 6 Xposition Yposition Zposition Zrotation Xrotation Yrotation
  JOINT Bip001_Spine
  {
    OFFSET 1.4188e-005 10.2191 -0.0116013
    CHANNELS 3 Zrotation Xrotation Yrotation
    JOINT Bip001_L_Thigh
    {
      OFFSET 11.0458 -10.2192 0.0116197
      CHANNELS 3 Zrotation Xrotation Yrotation
      JOINT Bip001_L_Calf
      {
        OFFSET -0.707118 -44.0221 0.360014
        CHANNELS 3 Zrotation Xrotation Yrotation
        JOINT Bip001_L_Foot
        {
          OFFSET -0.651902 -40.5938 -3.56146
          CHANNELS 3 Zrotation Xrotation Yrotation
          JOINT Bip001_L_Toe0
          {
            OFFSET 0.0530839 -10.2181 13.1504
            CHANNELS 3 Zrotation Xrotation Yrotation
            End Site
            {
              OFFSET -1.02532e-005 0 7.55606
            }
          }
        }
      }
    }
    JOINT Bip001_R_Thigh
    {
      OFFSET -11.0458 -10.2191 0.0115893
      CHANNELS 3 Zrotation Xrotation Yrotation
      JOINT Bip001_R_Calf
      {
        OFFSET 0.706994 -44.0221 0.35984
        CHANNELS 3 Zrotation Xrotation Yrotation
        JOINT Bip001_R_Foot
        {
          OFFSET 0.651786 -40.5938 -3.5613
          CHANNELS 3 Zrotation Xrotation Yrotation
          JOINT Bip001_R_Toe0
          {
            OFFSET -0.0531479 -10.2181 13.1504
            CHANNELS 3 Zrotation Xrotation Yrotation
            End Site
            {
              OFFSET -1.02894e-005 0 7.55606
            }
          }
        }
      }
    }
    JOINT Bip001_Spine1
    {
      OFFSET 1.87041e-005 14.5736 1.08638
      CHANNELS 3 Zrotation Xrotation Yrotation
      JOINT Bip001_Spine2
      {
        OFFSET 2.24614e-005 14.5058 -1.69078
        CHANNELS 3 Zrotation Xrotation Yrotation
        JOINT Bip001_Neck
        {
          OFFSET 2.20278e-005 15.3945 -0.489414
          CHANNELS 3 Zrotation Xrotation Yrotation
          JOINT Bip001_L_Clavicle
          {
            OFFSET 6.06036 -0.000579998 0.00836775
            CHANNELS 3 Zrotation Xrotation Yrotation
            JOINT Bip001_L_UpperArm
            {
              OFFSET 11.5509 -0.0600302 0.00193952
              CHANNELS 3 Zrotation Xrotation Yrotation
              JOINT Bip001_L_Forearm
              {
                OFFSET 25.9523 0.0806089 -2.15551
                CHANNELS 3 Zrotation Xrotation Yrotation
                JOINT Bip001_L_Hand
                {
                  OFFSET 32.2475 0.153767 1.63968
                  CHANNELS 3 Zrotation Xrotation Yrotation
                  JOINT Bip001_L_Finger0
                  {
                    OFFSET 6.04639 -2.20976 5.90322
                    CHANNELS 3 Zrotation Xrotation Yrotation
                    End Site
                    {
                      OFFSET 4.22375 -1.43895 0.606485
                    }
                  }
                  JOINT Bip001_L_Finger1
                  {
                    OFFSET 11.0826 -0.704819 -0.198153
                    CHANNELS 3 Zrotation Xrotation Yrotation
                    End Site
                    {
                      OFFSET 6.20027 -0.397518 -0.0787166
                    }
                  }
                }
              }
            }
          }
          JOINT Bip001_R_Clavicle
          {
            OFFSET -6.06037 -0.000563197 0.00835105
            CHANNELS 3 Zrotation Xrotation Yrotation
            JOINT Bip001_R_UpperArm
            {
              OFFSET -11.5509 -0.0599978 0.00190698
              CHANNELS 3 Zrotation Xrotation Yrotation
              JOINT Bip001_R_Forearm
              {
                OFFSET -25.9523 0.0806822 -2.15589
                CHANNELS 3 Zrotation Xrotation Yrotation
                JOINT Bip001_R_Hand
                {
                  OFFSET -32.2475 0.153859 1.63989
                  CHANNELS 3 Zrotation Xrotation Yrotation
                  JOINT Bip001_R_Finger0
                  {
                    OFFSET -6.04641 -2.20976 5.90317
                    CHANNELS 3 Zrotation Xrotation Yrotation
                    End Site
                    {
                      OFFSET -4.22376 -1.43895 0.60647
                    }
                  }
                  JOINT Bip001_R_Finger1
                  {
                    OFFSET -11.0826 -0.704794 -0.198182
                    CHANNELS 3 Zrotation Xrotation Yrotation
                    End Site
                    {
                      OFFSET -6.20028 -0.397504 -0.0787333
                    }
                  }
                }
              }
            }
          }
          JOINT Bip001_Head
          {
            OFFSET 1.09673e-005 11.2744 2.05948
            CHANNELS 3 Zrotation Xrotation Yrotation
            End Site
            {
              OFFSET 2.89576e-005 20.8808 -2.77728e-005
            }
          }
        }
      }
    }
  }
}
MOTION
Frames:	14
Frame Time:	0.04
34.9446 95.9294 -27.5025 0.0299967 0.756735 2.0107 -0.281658 1.65115 0.363914 4.29504 -3.12009 6.76796 -0.582686 7.52581 -7.65362 3.80379 -4.89488 -0.0147854 0.968233 -4.35483 -0.426859 -3.93053 -2.55862 -3.18475 -0.244311 9.48189 0.200988 -5.25137 -8.68435 2.66884 2.50723 -8.38901 2.55526 -0.577052 3.28833 0.736716 -0.577049 3.28826 0.736711 0.0571195 -9.86388 -4.73665 -22.1606 10.6546 -0.178976 -56.1245 38.5358 4.90345 12.442 -6.88048 -25.1086 7.33825 0.508135 -2.60024 1.59028e-015 -1.27222e-014 3.18055e-015 4.77083e-015 -9.54167e-015 3.18055e-015 9.1285 15.5187 27.6864 82.3739 -47.5534 74.586 -34.4863 -2.08075 99.4978 -32.109 9.14513 2.29464 8.82781e-032 -6.36111e-015 7.95139e-016 -1.59028e-015 0 -3.18055e-015 0.714878 -1.72439 -4.68214 
34.8761 95.9238 -27.4716 -0.158572 0.851967 2.22465 -0.244762 1.65446 0.534852 4.51749 -3.37338 6.24469 -0.695162 7.74362 -7.685 4.16039 -4.78606 -0.0122705 1.01871 -4.57811 -0.425414 -3.69388 -2.53765 -3.15022 -0.229558 9.31 0.139855 -5.37101 -8.5231 2.25974 2.51431 -8.44146 2.59286 -0.504886 3.30656 1.0774 -0.503472 3.30656 1.07736 0.481679 -10.1629 -5.36298 -22.8466 10.9224 -0.492621 -55.5761 38.0243 5.02545 12.1534 -6.57353 -25.185 7.34871 0.580324 -2.83197 1.59028e-015 -9.54166e-015 -6.36111e-015 1.59028e-015 -6.36111e-015 -3.18055e-015 5.39938 14.7838 28.2824 72.395 -41.4573 72.2258 -33.0855 -4.90864 90.4258 -29.0107 9.02497 3.71804 -1.59028e-015 -3.18055e-015 1.59028e-015 8.82782e-032 -3.18056e-015 1.59028e-015 0.199915 -1.97272 -5.08545 
34.7827 95.9279 -27.4421 -0.427141 1.05842 2.40793 -0.246306 1.66199 0.643456 4.89074 -3.77851 5.03552 -0.911037 8.04559 -6.88938 4.19636 -4.90996 -0.00960463 0.89303 -4.57801 -0.276138 -3.29982 -2.57364 -3.12473 -0.284017 8.99926 0.043508 -5.42665 -8.3105 2.00363 2.51137 -8.43782 2.58162 -0.512116 3.31878 1.2951 -0.510209 3.31878 1.29497 0.871631 -10.9486 -5.67167 -23.208 11.5817 -0.289441 -55.0147 37.9922 4.75479 12.1533 -6.0337 -25.0368 7.03741 0.474471 -3.03613 -3.18055e-015 -9.54166e-015 -3.18055e-015 -3.18055e-015 -1.27222e-014 -3.18055e-015 1.7497 14.5232 29.2005 54.6769 -35.1936 65.5879 -33.7673 -10.5372 75.7017 -26.0757 9.10201 5.70727 -1.98785e-016 9.54166e-015 -0 -2.75869e-032 3.18056e-015 4.96962e-016 0.0356017 -1.54245 -5.25729 
34.6598 95.935 -27.4191 -0.610124 1.03494 2.48286 -0.299821 1.6693 0.877827 5.31872 -3.93868 4.36219 -1.15281 8.35163 -6.42663 3.93545 -5.2143 0.00146098 0.825239 -4.39038 -0.232233 -2.94528 -2.45015 -3.1918 -0.310501 8.80458 0.0361765 -5.50485 -8.164 1.791 2.50957 -8.42969 2.58053 -0.625567 3.33383 1.76552 -0.625567 3.33396 1.76552 1.51189 -11.932 -6.49912 -24.4081 12.1676 0.485565 -53.884 38.4524 4.50821 12.0889 -5.68595 -24.7053 6.68548 0.504631 -3.15116 -5.29669e-031 -9.54166e-015 -3.18055e-015 3.18055e-015 -9.54167e-015 -3.18055e-015 -2.03446 14.4837 30.7591 45.2793 -32.081 64.5727 -33.5654 -17.8611 62.1912 -25.0925 6.22471 6.0019 -2.78298e-015 0 1.19271e-015 -3.57812e-015 0 -3.97569e-016 -0.298978 -0.792207 -5.83824 
34.4987 95.936 -27.4635 -0.811224 1.07954 2.67026 -0.417603 1.63416 1.07781 5.74992 -4.21867 4.42113 -1.11637 8.70853 -6.75234 3.78182 -5.38854 0.0120949 0.846746 -4.32574 -0.269994 -2.49544 -2.39528 -2.75889 -0.230706 8.62396 -0.0823347 -5.70537 -7.95967 1.16484 2.50575 -8.39538 2.57302 -0.866275 3.26013 2.16888 -0.866275 3.26018 2.16888 2.477 -12.1412 -7.29603 -25.5957 11.8087 1.51667 -52.7197 39.2744 4.03171 11.9623 -5.93589 -24.3026 6.79076 0.620396 -3.12372 -4.77083e-015 0 1.27222e-014 -3.18055e-015 0 9.54166e-015 -3.24359 14.6239 33.028 52.0873 -35.9298 70.4637 -33.7721 -17.6978 60.0392 -22.1649 7.28655 7.64975 -0 0 3.97569e-016 -1.19271e-015 3.18056e-015 -3.97569e-016 -0.683642 -0.725579 -6.32928 
34.4089 95.9381 -27.4747 -0.933911 1.05451 3.15885 -0.432078 1.544 1.1218 5.84959 -4.35732 4.69022 -0.844707 8.96224 -7.43762 3.64876 -5.45103 0.0156375 0.86922 -4.23508 -0.346491 -2.30859 -2.09756 -2.93669 -0.172451 8.38296 -0.0982163 -5.78579 -7.84929 0.942347 2.5012 -8.36928 2.55722 -0.895981 3.07915 2.25524 -0.895553 3.07914 2.25615 3.34508 -11.5983 -7.76915 -25.9479 10.8549 2.21433 -53.1308 39.7318 3.98464 12.0821 -6.40438 -24.095 6.86716 0.881074 -2.77498 3.18055e-015 -9.54166e-015 3.18055e-015 1.59028e-015 -6.36111e-015 3.18055e-015 -4.43003 13.7892 33.256 52.9044 -39.3611 71.6416 -32.9991 -14.765 58.3376 -22.7899 8.86539 5.91976 3.97569e-016 6.36111e-015 -0 -6.62086e-032 3.18056e-015 1.19271e-015 -1.27852 -1.00338 -6.48538 
34.4384 95.968 -27.4366 -0.782954 1.0124 3.50932 -0.39727 1.46771 1.16381 5.53677 -4.19837 4.5439 -0.566951 8.77639 -7.45135 2.961 -5.62792 0.0220013 0.793967 -3.77767 -0.359385 -2.52633 -1.84843 -3.65721 -0.187443 8.33188 0.0213113 -5.7002 -7.90757 1.12734 2.46793 -8.27571 2.52918 -0.823534 2.92704 2.33843 -0.82406 2.92704 2.33861 3.62822 -10.9058 -8.07998 -26.5317 10.0916 1.97256 -53.273 38.8796 4.76745 12.0838 -6.13403 -24.7563 6.81973 1.01739 -2.42586 -0 -6.36111e-015 -0 -0 -6.36111e-015 -0 -6.88306 11.9521 31.6999 47.6414 -40.1364 69.0879 -33.3348 -13.5291 52.1759 -21.983 11.3568 5.61204 -7.95139e-016 -3.18055e-015 -0 -7.95139e-016 -3.18056e-015 -7.95139e-016 -1.85887 -1.37352 -6.59633 
34.4224 96.0095 -27.432 -0.674213 1.16149 3.47354 -0.457487 1.39688 1.18812 5.60986 -4.22647 4.23192 -0.777771 8.7274 -6.81955 2.38295 -5.93074 0.0307033 0.698194 -3.23152 -0.310444 -2.52786 -2.00652 -3.53911 -0.269318 8.47803 0.102647 -5.68438 -7.84034 0.994016 2.44838 -8.21118 2.50267 -0.946444 2.78387 2.38825 -0.944377 2.78388 2.38839 4.1277 -10.269 -8.13046 -27.3187 9.42069 1.63989 -52.668 38.2817 5.28867 12.0954 -5.89466 -25.032 6.66102 0.729467 -2.64024 1.76556e-031 -3.18055e-015 3.18055e-015 1.59028e-015 0 6.36111e-015 -7.24567 11.1145 30.1726 38.2665 -38.6104 61.7155 -32.8564 -16.5774 48.9354 -17.0644 12.8806 3.03949 8.82781e-032 6.36111e-015 -7.95139e-016 -1.59028e-015 3.18056e-015 -0 -2.10963 -1.82852 -6.49996 
34.3322 96.0348 -27.4146 -0.809578 1.15173 3.48389 -0.453859 1.30648 1.09562 5.92946 -4.20285 4.26363 -0.865731 8.93154 -6.26649 0.955584 -6.73602 0.0324362 0.417526 -2.42988 -0.204096 -2.31018 -1.88922 -3.10882 -0.261989 8.40959 0.249203 -5.82084 -7.64897 0.684807 2.42538 -8.12389 2.45384 -0.93069 2.60402 2.20222 -0.933287 2.60409 2.20222 4.33422 -9.72743 -7.9529 -27.273 8.78012 1.99829 -53.3033 39.2499 5.67113 12.155 -6.80886 -24.6672 6.89094 0.620809 -2.59209 1.59028e-015 -3.18055e-015 9.54166e-015 1.59028e-015 0 9.54166e-015 -7.11523 10.5957 29.2331 32.0352 -36.2818 56.3151 -31.5028 -20.2097 47.5637 -15.9263 14.1441 2.5213 1.59028e-015 6.36111e-015 3.18055e-015 -4.41391e-031 6.36111e-015 3.97569e-015 -2.20278 -1.912 -6.26252 
34.2616 96.0276 -27.3349 -0.685124 0.906334 3.80116 -0.4272 1.30578 0.823081 5.61651 -3.91192 5.39309 -0.253989 8.83637 -7.41171 0.893756 -6.5702 0.0333765 0.49607 -2.46385 -0.295958 -2.43927 -1.63479 -3.25035 -0.199839 8.63547 0.296034 -5.87281 -7.85977 0.769628 2.40048 -8.05309 2.43678 -0.869143 2.5958 1.65676 -0.873244 2.59572 1.65647 4.31082 -8.74184 -7.46195 -27.2522 7.78665 2.33254 -53.923 39.5068 5.69093 12.5388 -6.97932 -24.0611 6.87132 0.718698 -2.37027 -1.59028e-015 3.18055e-015 3.18055e-015 -1.76556e-031 3.18056e-015 3.18055e-015 -4.59809 10.5367 28.5788 35.203 -36.2435 56.293 -32.2867 -16.0575 54.6433 -17.3498 14.156 1.33267 -0 -6.36111e-015 -0 1.59028e-015 -3.18056e-015 -7.95139e-016 -2.22393 -2.93632 -5.80408 
34.0556 96.0207 -27.2573 -0.636716 0.881887 3.67089 -0.379691 1.26501 0.668877 5.80374 -3.69368 6.23066 -0.444448 8.72486 -7.84492 0.941108 -6.49958 0.0337994 0.655663 -2.48524 -0.493318 -2.34996 -1.64079 -2.4665 -0.180317 8.79454 0.285741 -6.03877 -7.92238 0.282578 2.38486 -7.99941 2.41228 -0.783066 2.52543 1.34666 -0.777972 2.52546 1.34702 4.23448 -7.73509 -7.03627 -27.2757 6.87427 2.25393 -54.6796 38.7015 5.936 12.6807 -6.80696 -24.0021 6.79311 0.899804 -2.20327 1.59028e-015 3.18055e-015 -3.18055e-015 3.18055e-015 0 -3.18055e-015 -0.459393 10.972 27.9455 45.1369 -39.2341 58.6576 -34.5227 -8.93878 68.3584 -17.9034 12.6404 0.818763 -3.18055e-015 0 3.18055e-015 -1.59028e-015 0 2.38542e-015 -2.2733 -3.95464 -5.40729 
33.8966 96.0147 -27.171 -0.526749 0.719135 3.66647 -0.402898 1.2962 0.469458 5.95419 -3.37377 6.11382 -0.675829 8.53301 -7.49973 0.491611 -6.709 0.0339271 0.43082 -2.18967 -0.281091 -2.30346 -1.53124 -2.15047 -0.181374 8.9527 0.283729 -6.12185 -8.06286 0.166228 2.3671 -7.94694 2.39728 -0.81631 2.58904 0.948374 -0.8165 2.58903 0.948355 4.29583 -7.0472 -6.52765 -27.033 6.28916 2.2134 -55.5771 38.082 6.01469 12.5259 -7.17951 -23.9798 7.01703 0.853182 -2.19539 -1.59028e-015 9.54166e-015 -6.36111e-015 -1.59028e-015 1.59028e-014 -3.18055e-015 4.98656 12.2103 27.5513 54.6066 -44.6213 58.8659 -35.037 -2.62734 85.2667 -18.5777 10.4607 0.510178 -1.59028e-015 3.18055e-015 -7.95139e-016 -1.59028e-015 3.18056e-015 -7.95139e-016 -2.23041 -4.72876 -4.91914 
33.9006 95.9872 -27.1258 -0.238054 0.564877 3.58461 -0.471918 1.33769 0.269092 5.62659 -2.97337 6.34927 -0.549631 8.0641 -7.77299 1.15814 -6.11645 0.0310806 0.626671 -2.74962 -0.349233 -2.56952 -1.55897 -1.9578 -0.089838 9.33257 0.231279 -6.14116 -8.39559 0.236099 2.37668 -8.01605 2.46419 -0.951919 2.67307 0.549699 -0.947668 2.67308 0.549582 4.44413 -6.64214 -5.9697 -26.7849 5.95767 2.29997 -56.7398 37.6622 6.3189 12.6043 -7.42912 -24.0988 7.07596 0.687333 -2.32028 1.59028e-015 -9.54166e-015 -3.18055e-015 -1.76556e-031 -3.18056e-015 -3.18055e-015 10.0582 13.484 26.8785 55.9169 -49.2695 49.6952 -35.2186 -1.03096 99.734 -20.2776 7.88991 0.637944 1.59028e-015 -3.18055e-015 -0 4.41391e-032 -3.18056e-015 7.95139e-016 -2.29276 -5.13238 -4.33763 
33.8294 95.9542 -27.1145 -0.0656097 0.537657 3.58757 -0.466597 1.37557 0.0230848 5.54199 -2.87855 6.89697 -0.607793 7.95106 -8.12402 1.31815 -5.99359 0.0266259 0.707489 -2.87063 -0.427565 -2.69844 -1.62735 -1.75531 -0.0785365 9.50196 0.175125 -6.22787 -8.65233 0.245012 2.41107 -8.06792 2.42282 -0.926216 2.7509 0.057176 -0.925051 2.75092 0.0571175 3.89246 -6.3133 -5.1905 -26.3487 5.81705 2.34953 -57.6343 37.7325 6.71807 13.072 -7.1018 -24.2533 7.03543 0.326876 -2.76848 1.59028e-015 -6.36111e-015 3.18055e-015 3.18055e-015 -6.36111e-015 -0 15.2518 14.5512 26.1155 44.5576 -48.528 27.988 -34.7227 -3.2725 107.845 -25.1573 5.72308 1.43807 3.18055e-015 -3.18055e-015 -1.59028e-015 8.82782e-032 3.18056e-015 -1.59028e-015 -1.85289 -5.79441 -3.79576 
